<svg width="120" height="36" viewBox="0 0 120 36" fill="none" xmlns="http://www.w3.org/2000/svg">
<rect width="36" height="36" rx="6.25" fill="#C0FAA0"/>
<path d="M18.1018 7.0264C23.2628 7.78533 19.1021 12.0019 16.6589 16.6108C14.5608 20.5686 25.573 26.1574 21.5727 28.1908C16.0331 31.0065 9.25984 28.7985 6.44408 23.259C3.62832 17.7194 5.83637 10.9461 11.3759 8.13038C13.533 7.03393 15.8771 6.69925 18.1018 7.0264Z" fill="#161326"/>
<path d="M21.1898 14.3314C23.3527 16.9491 25.9119 18.4053 20.3664 22.9875C17.7487 25.1504 13.8732 24.7817 11.7103 22.1641C9.54735 19.5464 9.916 15.6709 12.5337 13.508C15.1514 11.345 19.0268 11.7137 21.1898 14.3314Z" fill="#2BC155"/>
<circle cx="26.0092" cy="18.1315" r="1.35265" transform="rotate(-26.9444 26.0092 18.1315)" fill="#161326"/>
<path d="M63.1648 15.3693H58.9034C58.8466 14.9318 58.7301 14.5369 58.554 14.1847C58.3778 13.8324 58.1449 13.5312 57.8551 13.2812C57.5653 13.0312 57.2216 12.8409 56.8239 12.7102C56.4318 12.5739 55.9972 12.5057 55.5199 12.5057C54.6733 12.5057 53.9432 12.7131 53.3295 13.1278C52.7216 13.5426 52.2528 14.142 51.9233 14.9261C51.5994 15.7102 51.4375 16.6591 51.4375 17.7727C51.4375 18.9318 51.6023 19.9034 51.9318 20.6875C52.267 21.4659 52.7358 22.054 53.3381 22.4517C53.946 22.8437 54.6648 23.0398 55.4943 23.0398C55.9602 23.0398 56.3835 22.9801 56.7642 22.8608C57.1506 22.7415 57.4886 22.5682 57.7784 22.3409C58.0739 22.108 58.3153 21.8267 58.5028 21.4972C58.696 21.1619 58.8295 20.7841 58.9034 20.3636L63.1648 20.3892C63.0909 21.1619 62.8665 21.9233 62.4915 22.6733C62.1222 23.4233 61.6136 24.108 60.9659 24.7273C60.3182 25.3409 59.5284 25.8295 58.5966 26.1932C57.6705 26.5568 56.608 26.7386 55.4091 26.7386C53.8295 26.7386 52.4148 26.392 51.1648 25.6989C49.9205 25 48.9375 23.983 48.2159 22.6477C47.4943 21.3125 47.1335 19.6875 47.1335 17.7727C47.1335 15.8523 47.5 14.2244 48.233 12.8892C48.9659 11.554 49.9574 10.5398 51.2074 9.84659C52.4574 9.15341 53.858 8.80682 55.4091 8.80682C56.4659 8.80682 57.4432 8.95455 58.3409 9.25C59.2386 9.53977 60.0284 9.96591 60.7102 10.5284C61.392 11.0852 61.946 11.7699 62.3722 12.5824C62.7983 13.3949 63.0625 14.3239 63.1648 15.3693ZM65.5788 26.5V13.4091H69.6271V15.7955H69.7635C70.0021 14.9318 70.3913 14.2898 70.9311 13.8693C71.4709 13.4432 72.0987 13.2301 72.8146 13.2301C73.0078 13.2301 73.2067 13.2443 73.4112 13.2727C73.6158 13.2955 73.8061 13.3324 73.9822 13.3835V17.0057C73.7834 16.9375 73.522 16.8835 73.1982 16.8438C72.88 16.804 72.5959 16.7841 72.3459 16.7841C71.8516 16.7841 71.4055 16.8949 71.0078 17.1165C70.6158 17.3324 70.3061 17.6364 70.0788 18.0284C69.8572 18.4148 69.7464 18.8693 69.7464 19.392V26.5H65.5788ZM75.6804 26.5V13.4091H79.848V26.5H75.6804ZM77.7685 11.8835C77.1832 11.8835 76.6804 11.6903 76.2599 11.304C75.8395 10.9119 75.6293 10.4403 75.6293 9.8892C75.6293 9.34375 75.8395 8.87784 76.2599 8.49148C76.6804 8.09943 77.1832 7.90341 77.7685 7.90341C78.3594 7.90341 78.8622 8.09943 79.277 8.49148C79.6974 8.87784 79.9077 9.34375 79.9077 9.8892C79.9077 10.4403 79.6974 10.9119 79.277 11.304C78.8622 11.6903 78.3594 11.8835 77.7685 11.8835ZM89.8899 13.4091V16.4773H81.6314V13.4091H89.8899ZM83.3615 10.2727H87.5291V22.3835C87.5291 22.6392 87.5689 22.8466 87.6484 23.0057C87.7337 23.1591 87.8558 23.2699 88.0149 23.3381C88.174 23.4006 88.3643 23.4318 88.5859 23.4318C88.745 23.4318 88.9126 23.4176 89.0888 23.3892C89.2706 23.3551 89.407 23.3267 89.4979 23.304L90.1286 26.3125C89.9297 26.3693 89.6484 26.4403 89.2848 26.5256C88.9268 26.6108 88.4979 26.6648 87.9979 26.6875C87.0206 26.733 86.1825 26.6193 85.4837 26.3466C84.7905 26.0682 84.2592 25.6364 83.8899 25.0511C83.5263 24.4659 83.3501 23.7301 83.3615 22.8438V10.2727ZM103.281 17.4062L99.4545 17.5085C99.4148 17.2358 99.3068 16.9943 99.1307 16.7841C98.9545 16.5682 98.7244 16.4006 98.4403 16.2812C98.1619 16.1562 97.8381 16.0938 97.4688 16.0938C96.9858 16.0938 96.5739 16.1903 96.233 16.3835C95.8977 16.5767 95.733 16.8381 95.7386 17.1676C95.733 17.4233 95.8352 17.6449 96.0455 17.8324C96.2614 18.0199 96.6449 18.1705 97.196 18.2841L99.7188 18.7614C101.026 19.0114 101.997 19.4261 102.634 20.0057C103.276 20.5852 103.599 21.3523 103.605 22.3068C103.599 23.2045 103.332 23.9858 102.804 24.6506C102.281 25.3153 101.565 25.8324 100.656 26.2017C99.7472 26.5653 98.7074 26.7472 97.5369 26.7472C95.6676 26.7472 94.1932 26.3636 93.1136 25.5966C92.0398 24.8239 91.4261 23.7898 91.2727 22.4943L95.3892 22.392C95.4801 22.8693 95.7159 23.233 96.0966 23.483C96.4773 23.733 96.9631 23.858 97.554 23.858C98.0881 23.858 98.5227 23.7585 98.858 23.5597C99.1932 23.3608 99.3636 23.0966 99.3693 22.767C99.3636 22.4716 99.233 22.2358 98.9773 22.0597C98.7216 21.8778 98.321 21.7358 97.7756 21.6335L95.4915 21.1989C94.179 20.9602 93.2017 20.5199 92.5597 19.8778C91.9176 19.2301 91.5994 18.4062 91.6051 17.4062C91.5994 16.5312 91.8324 15.7841 92.304 15.1648C92.7756 14.5398 93.446 14.0625 94.3153 13.733C95.1847 13.4034 96.2102 13.2386 97.392 13.2386C99.1648 13.2386 100.563 13.6108 101.585 14.3551C102.608 15.0937 103.173 16.1108 103.281 17.4062ZM111.768 26.7472C110.393 26.7472 109.211 26.4659 108.222 25.9034C107.239 25.3352 106.481 24.5455 105.947 23.5341C105.418 22.517 105.154 21.3381 105.154 19.9972C105.154 18.6506 105.418 17.4716 105.947 16.4602C106.481 15.4432 107.239 14.6534 108.222 14.0909C109.211 13.5227 110.393 13.2386 111.768 13.2386C113.143 13.2386 114.322 13.5227 115.305 14.0909C116.293 14.6534 117.052 15.4432 117.58 16.4602C118.114 17.4716 118.381 18.6506 118.381 19.9972C118.381 21.3381 118.114 22.517 117.58 23.5341C117.052 24.5455 116.293 25.3352 115.305 25.9034C114.322 26.4659 113.143 26.7472 111.768 26.7472ZM111.793 23.6023C112.293 23.6023 112.717 23.4489 113.063 23.142C113.41 22.8352 113.674 22.4091 113.856 21.8636C114.043 21.3182 114.137 20.6875 114.137 19.9716C114.137 19.2443 114.043 18.608 113.856 18.0625C113.674 17.517 113.41 17.0909 113.063 16.7841C112.717 16.4773 112.293 16.3239 111.793 16.3239C111.276 16.3239 110.839 16.4773 110.481 16.7841C110.129 17.0909 109.859 17.517 109.671 18.0625C109.489 18.608 109.398 19.2443 109.398 19.9716C109.398 20.6875 109.489 21.3182 109.671 21.8636C109.859 22.4091 110.129 22.8352 110.481 23.142C110.839 23.4489 111.276 23.6023 111.793 23.6023Z" fill="#161326"/>
</svg>
