<svg width="16" height="16" viewBox="0 0 16 16" fill="none" xmlns="http://www.w3.org/2000/svg">
<path d="M9.98 8.5H9.46667H6.35333V10.3867H7.22667H9.98C10.6133 10.3867 11.1333 9.96 11.1333 9.44C11.1333 8.92 10.6133 8.5 9.98 8.5Z" fill="#161326"/>
<path d="M8 1.3335C4.32 1.3335 1.33333 4.32016 1.33333 8.00016C1.33333 11.6802 4.32 14.6668 8 14.6668C11.68 14.6668 14.6667 11.6802 14.6667 8.00016C14.6667 4.32016 11.68 1.3335 8 1.3335ZM9.98 11.3868H8.88V12.3335C8.88 12.6068 8.65333 12.8335 8.38 12.8335C8.10667 12.8335 7.88 12.6068 7.88 12.3335V11.3868H7.22667H7.07333V12.3335C7.07333 12.6068 6.84667 12.8335 6.57333 12.8335C6.3 12.8335 6.07333 12.6068 6.07333 12.3335V11.3868H5.85333H4.7C4.42667 11.3868 4.2 11.1602 4.2 10.8868C4.2 10.6135 4.42667 10.3868 4.7 10.3868H5.35333V8.00016V5.6135H4.7C4.42667 5.6135 4.2 5.38683 4.2 5.1135C4.2 4.84016 4.42667 4.6135 4.7 4.6135H5.85333H6.07333V3.66683C6.07333 3.3935 6.3 3.16683 6.57333 3.16683C6.84667 3.16683 7.07333 3.3935 7.07333 3.66683V4.6135H7.22667H7.88V3.66683C7.88 3.3935 8.10667 3.16683 8.38 3.16683C8.65333 3.16683 8.88 3.3935 8.88 3.66683V4.6135H9.46667C10.5 4.6135 11.4133 5.52016 11.4133 6.56016C11.4133 7.00683 11.2533 7.4135 11 7.74683C11.6733 8.07349 12.1333 8.7135 12.1333 9.4535C12.1333 10.5135 11.1667 11.3868 9.98 11.3868Z" fill="#161326"/>
<path d="M10.4133 6.55311C10.4133 6.11311 10 5.60645 9.46667 5.60645H7.22667H6.35333V7.49311H9.46667C9.98667 7.49978 10.4133 7.07311 10.4133 6.55311Z" fill="#161326"/>
</svg>
