<svg width="16" height="16" viewBox="0 0 16 16" fill="none" xmlns="http://www.w3.org/2000/svg">
<path d="M4.74668 2.3335H10.6667C13.3333 2.3335 14.6667 4.00016 14.6667 6.3335V8.00016C14.6667 11.3335 12.6667 13.6668 9.00001 13.6668H2.62668L3.33335 10.8335H8.29334C10.6667 10.8335 11.8333 9.3335 11.8333 7.2935V7.16683C11.8333 6.00016 11.3333 5.16683 9.83334 5.16683H4.04001L4.74668 2.3335Z" fill="#161326"/>
<path d="M8.27334 6.81982H3.13334C2.41334 6.81982 1.78667 7.31316 1.60667 8.00649L1.44 8.68649C1.38 8.93316 1.56667 9.17316 1.82 9.17316H6.96C7.68 9.17316 8.30667 8.67982 8.48667 7.98649L8.65334 7.3065C8.72 7.05983 8.52667 6.81982 8.27334 6.81982Z" fill="#161326"/>
</svg>
